<svg xmlns="http://www.w3.org/2000/svg" width="142" height="54" viewBox="0 0 142 54" fill="none">
<path d="M134.143 38.7946C131.729 38.1826 129.646 37.6648 129.646 35.6876C129.646 34.1341 130.83 33.1455 132.723 33.1455C134.474 33.0514 136.084 34.2283 136.415 35.97L141.148 33.7104C139.87 30.6035 136.794 28.7205 132.865 28.7205C127.753 28.7205 124.203 31.8274 124.203 36.2525C124.203 41.6661 128.132 42.7018 131.634 43.5962C134.096 44.2082 136.178 44.7731 136.178 46.7973C136.178 48.4921 134.806 49.5748 132.723 49.5748C130.64 49.5748 128.889 48.445 128.416 46.7503L123.682 49.0099C125.008 52.1168 128.368 53.9999 132.534 53.9999C138.072 53.9999 141.622 50.94 141.622 46.1383C141.622 40.6776 137.456 39.6419 134.143 38.7946Z" fill="white"/>
<path d="M142 6.83032V9.32531H137.976V11.6791H141.479L140.816 14.0799H137.976V17.7989H135.231V6.83032H142Z" fill="white"/>
<path d="M128.321 9.37225C130.025 9.37225 131.397 10.7374 131.397 12.4321C131.397 14.1268 130.025 15.492 128.321 15.492C126.617 15.492 125.244 14.1268 125.244 12.4321C125.244 10.7374 126.617 9.37225 128.321 9.37225ZM128.321 18.1282C131.492 18.1282 134.048 15.5391 134.048 12.3851C134.048 9.23103 131.445 6.68896 128.273 6.68896C125.102 6.68896 122.546 9.2781 122.546 12.3851C122.546 15.5862 125.149 18.1753 128.321 18.1282Z" fill="white"/>
<path d="M77.8633 53.2939H82.9753V37.2412L94.5719 53.2939H99.9206V28.8618H94.7613V45.1498L83.3066 28.8618H76.6799L77.8633 31.2627V53.2939Z" fill="white"/>
<path d="M117.244 43.9729C116.534 45.7147 115.114 47.0799 113.41 47.8331C112.511 48.2097 111.564 48.398 110.57 48.398H107.636V33.8047H110.57C111.564 33.8047 112.511 33.993 113.41 34.3696C115.162 35.0757 116.534 36.488 117.244 38.2297C118.002 40.1128 118.002 42.137 117.244 43.9729ZM115.54 29.8504C113.978 29.2384 112.322 28.9088 110.665 28.8147H102.287V53.2468H110.665C113.978 53.2468 117.15 52.0228 119.564 49.7632C120.7 48.6805 121.646 47.3623 122.262 45.903C124.297 41.2896 123.208 35.9231 119.564 32.4395C118.38 31.3568 117.055 30.4623 115.54 29.8504Z" fill="white"/>
<path d="M32.7549 53.2939H18.1289V28.8618H32.7549V33.6164H23.4776V38.5593H31.9502L30.6722 43.1727H23.4776V48.5393L32.7549 48.5863V53.2939Z" fill="white"/>
<path d="M66.1719 33.6164H75.4493V28.8618H60.8706V53.2939H75.4493V48.5863L66.1719 48.5393V43.1727H73.3666L74.6446 38.5593H66.1719V33.6164Z" fill="white"/>
<path d="M84.7267 19.3052C84.2534 17.9401 84.0167 16.5278 84.064 15.1155L84.1587 0.0514698H89.4601L89.4127 14.8802C89.4127 16.5278 89.7914 17.8459 90.5487 18.7874C92.3474 20.6704 95.3767 20.7175 97.2227 18.8816L97.3174 18.7874C98.1221 17.8459 98.5007 16.5278 98.5007 14.8802L98.5481 0.00439453H103.944L103.849 15.2097C103.849 16.622 103.66 18.0342 103.187 19.3994C102.761 20.5763 102.051 21.659 101.199 22.6005C100.299 23.4949 99.2581 24.2011 98.0748 24.6247C95.3768 25.5662 92.4421 25.5662 89.7441 24.5776C88.5608 24.1069 87.5194 23.4478 86.6674 22.5063C85.8154 21.6119 85.1528 20.5292 84.7268 19.3052L84.7267 19.3052Z" fill="white"/>
<path d="M58.1251 17.4223C57.4624 15.8688 57.1311 14.1741 57.1311 12.5264C57.1311 10.8317 57.5098 9.1841 58.1724 7.63061C58.8351 6.12421 59.7818 4.75902 60.9651 3.62922C62.1484 2.45234 63.5684 1.55791 65.0831 0.94593C66.6451 0.286876 68.3491 -0.0426504 70.1004 0.00442486C72.4198 -0.0426763 74.7391 0.569328 76.7744 1.69913C78.6678 2.78186 80.2298 4.38242 81.2238 6.35958L76.3958 8.61919C75.8278 7.48939 74.9284 6.54788 73.8398 5.88883C72.7038 5.22978 71.3784 4.94732 70.0531 4.94732C69.0591 4.94732 68.0178 5.13563 67.1184 5.51223C66.2191 5.88883 65.4144 6.45373 64.7518 7.15986C64.0418 7.86599 63.5211 8.71334 63.1424 9.60777C62.3378 11.5379 62.3378 13.6562 63.0951 15.5863C63.8051 17.4223 65.2724 18.9287 67.0711 19.7289C68.0178 20.1526 69.0118 20.388 70.0531 20.3409C71.5678 20.388 73.0824 19.9172 74.3131 19.0699C75.4491 18.2696 76.2538 17.0457 76.5851 15.6805H67.8284L70.0058 11.2554H82.2178C82.2651 12.1969 82.2178 14.2211 82.1704 14.6448C82.0284 15.7746 81.7444 16.9044 81.3184 17.9872C80.1351 20.9058 77.8158 23.1654 74.8811 24.3423C70.0531 26.2724 64.5624 25.1426 60.8704 21.4707C59.6871 20.2939 58.7877 18.9287 58.1251 17.4223H58.1251Z" fill="white"/>
<path d="M1.23067 22.0366V2.59455L0 0.0524902H6.532V19.777H16.33L14.9573 24.5787H0L1.23067 22.0366Z" fill="white"/>
<path d="M1.23067 50.7517V31.3096L0 28.7676H6.532V48.4921H16.33L14.9573 53.2938H0L1.23067 50.7517Z" fill="white"/>
<path d="M32.7549 24.5778H18.1289V0.145752H32.7549V4.90035H23.4776V9.84325H31.9502L30.6722 14.4566H23.4776V19.7761L32.7549 19.8232V24.5778Z" fill="white"/>
<path d="M120.889 24.5778H106.311V0.145752H120.937V4.90035H111.659V9.84325H120.132L118.854 14.4566H111.659V19.7761L120.937 19.8232V24.5778L120.889 24.5778Z" fill="white"/>
<path d="M46.7656 6.9245L49.8423 15.1627H43.547L46.7656 6.9245ZM39.9023 24.5777L41.7483 19.8231H51.5936L53.487 24.5777H59.025L49.1323 0.0515137H41.559L43.1683 3.25263L34.459 24.5777H39.9023Z" fill="white"/>
<path d="M43.8303 53.6703C44.7297 53.8586 45.629 53.9528 46.5757 53.9528C48.2323 53.9999 49.889 53.6703 51.451 53.0583C54.3857 51.8815 56.705 49.6219 57.8883 46.7032C58.3143 45.6205 58.5983 44.4907 58.7403 43.3609C58.835 42.231 58.835 41.1012 58.7877 39.9244H46.5757V39.9714L44.3983 44.3965H53.1077C52.7763 45.7617 51.9717 46.9856 50.8357 47.7859C49.605 48.6804 48.1377 49.104 46.623 49.057C46.1497 49.057 45.7237 49.0099 45.2503 48.9157L44.1617 48.6333C43.9723 48.5862 43.8303 48.4921 43.641 48.445C41.8423 47.6447 40.375 46.1854 39.665 44.3024C38.9077 42.3723 38.9077 40.2068 39.7123 38.2767C40.091 37.3823 40.659 36.5349 41.3217 35.8288C41.9843 35.1227 42.8363 34.6049 43.7357 34.2283C44.6823 33.8517 45.6763 33.6634 46.6703 33.6634C47.9957 33.6163 49.321 33.9458 50.457 34.6049C51.5457 35.2639 52.445 36.2054 53.013 37.3352L57.841 35.0756C56.847 33.0985 55.3323 31.4979 53.3917 30.4152C51.3563 29.2854 49.0843 28.7205 46.7177 28.7205C43.3097 28.6734 40.0436 29.9915 37.5823 32.3923C36.399 33.5221 35.4523 34.8873 34.7896 36.3937C33.417 39.5007 33.417 43.0784 34.7423 46.1854C35.405 47.6918 36.3043 49.057 37.4403 50.2338C38.4816 51.2695 39.7123 52.1168 41.0377 52.7759C41.9685 53.1929 42.8994 53.5313 43.8303 53.6703Z" fill="white"/>
</svg>