<svg xmlns="http://www.w3.org/2000/svg" width="189" height="53" viewBox="0 0 189 53" fill="none">
<g clip-path="url(#clip0)">
<path d="M109.998 29.0864H116.137V52.6323H109.998V29.0864Z" fill="white"/>
<path d="M109.998 0.0681152H116.137V23.614H109.998V0.0681152Z" fill="white"/>
<path d="M142.192 44.2493C141.134 49.555 137.199 53.0454 130.724 52.9999C123.81 52.9507 118.911 47.9898 118.911 40.8726C118.911 33.7554 123.825 28.7454 130.724 28.7454C136.692 28.7454 140.612 32.0425 142.007 37.0525H135.702C134.704 35.5025 133.056 34.5968 130.947 34.5968C127.492 34.5968 125.178 37.0867 125.178 40.8878C125.178 44.6889 127.492 47.1788 130.947 47.1788C133.252 47.1788 135.04 46.0798 135.978 44.2797L142.192 44.2493Z" fill="white"/>
<path d="M155.32 38.1328C162.124 39.8382 165.265 41.0926 165.265 45.4698C165.265 49.847 162.324 53.0001 154.813 53.0001C147.231 53.0001 144.312 49.0891 144.312 44.2495H150.255C150.255 46.5499 151.767 47.9067 154.813 47.9067C157.153 47.9067 158.824 47.0615 158.824 45.8223C158.824 44.6854 156.953 44.1662 154.288 43.4461C147.888 41.7255 144.97 40.1983 144.97 35.8665C144.97 32.4065 147.272 28.7039 154.825 28.7039C162.377 28.7039 164.524 32.4065 164.524 36.4085H158.608C158.608 34.9267 157.72 33.7556 154.828 33.7556C151.937 33.7556 151.313 34.8547 151.313 35.7756C151.313 36.9504 152.685 37.4507 155.335 38.1139" fill="white"/>
<path d="M44.4907 29.0828L42.0262 34.6007H36.1521V52.6324H29.9831V34.6007H22.9788V29.0828H44.4907Z" fill="white"/>
<path d="M86.0021 44.2493C84.9437 49.555 81.0125 53.0454 74.5336 52.9999C67.62 52.9507 62.7249 47.9898 62.7249 40.8726C62.7249 33.7554 67.62 28.7454 74.5336 28.7454C80.5022 28.7454 84.4258 32.0425 85.8169 37.0525H79.5194C78.5253 35.5025 76.8545 34.5968 74.7679 34.5968C71.3092 34.5968 68.9959 37.0867 68.9959 40.8878C68.9959 44.6889 71.3092 47.1788 74.7679 47.1788C77.0737 47.1788 78.8579 46.0798 79.7991 44.2797L86.0021 44.2493Z" fill="white"/>
<path d="M142.551 12.366V23.6141L137.324 22.6932C135.365 23.8074 133.411 24.2546 130.701 24.2546C123.802 24.2546 118.911 19.2521 118.911 12.1273C118.911 5.0025 123.802 0 130.701 0C136.605 0 140.502 3.23268 141.924 8.15939H135.592C135.07 7.4144 134.371 6.81223 133.558 6.40777C132.744 6.00332 131.843 5.80944 130.935 5.84383C127.484 5.84383 125.175 8.32613 125.175 12.1235C125.175 15.9208 127.484 18.3994 130.935 18.3994C133.479 18.3994 136.526 16.8834 136.526 12.3547H142.555L142.551 12.366Z" fill="white"/>
<path d="M29.106 5.58603V9.29243H38.3519L35.91 14.6777H29.106V18.0885H38.9794L36.4921 23.614H22.9786V8.04938L24.0824 5.58603H16.254V29.0826L10.085 27.9457V5.58603H2.46834L0 0.0681152H38.9605V5.58603H29.106Z" fill="white"/>
<path d="M53.1885 0.0681152H47.8398L48.9738 2.81949L39.6599 23.614H45.9423L46.7588 21.6016L55.8308 19.8735L57.4562 23.614H63.731L53.1885 0.0681152ZM49.0721 16.0269H49.0419L51.5594 9.87226L53.8085 15.1211L49.0721 16.0269Z" fill="white"/>
<path d="M97.2142 5.58603V9.29243H106.456L104.048 14.6777H97.2142V23.614H91.0981V0.0681152H107.076V5.58603H97.2142Z" fill="white"/>
<path d="M107.084 29.0828V34.6007H100.079V52.6324H93.9105V34.6007H88.0401L85.5718 29.0828H107.084Z" fill="white"/>
<path d="M189 0.0681152L186.536 5.58224H178.908V27.9798L172.746 29.0826V5.58603H164.831L165.942 8.3374V23.614H159.792V13.916L151.877 15.4319V23.614H145.738V0.0681152H151.877V10.039L159.792 8.5231V0.0681152H189Z" fill="white"/>
<path d="M88.1913 0.0681152V23.614H82.1848V11.6307L76.9231 17.8952H76.4846L71.2531 11.6307V23.614H65.2051V0.0681152H68.7318L76.7341 10.1944L84.914 0.0681152H88.1913Z" fill="white"/>
<path d="M53.0786 29.0864H47.7299L48.8639 31.834L39.5613 52.6323H45.8399L46.6563 50.6351L55.7283 48.9069L57.3273 52.6323H63.6021L53.0786 29.0864ZM48.9584 45.0452H48.9281L51.4456 38.8868L53.7136 44.1394L48.9584 45.0452Z" fill="white"/>
<path d="M164.218 29.0828V29.3518H164.74V30.7882H165.069V29.3518H165.586V29.0828H164.218Z" fill="white"/>
<path d="M167.341 29.0828L166.876 30.2917L166.415 29.0828H165.942V30.7882H166.248V29.458L166.755 30.7882H166.985L167.492 29.458V30.7882H167.832V29.0828H167.341Z" fill="white"/>
</g>
<defs>
<clipPath id="clip0">
<rect width="189" height="53" fill="white"/>
</clipPath>
</defs>
</svg>